<?xml version="1.0" standalone="no"?>
<!DOCTYPE svg PUBLIC "-//W3C//DTD SVG 20010904//EN"
 "http://www.w3.org/TR/2001/REC-SVG-20010904/DTD/svg10.dtd">
<svg version="1.0" xmlns="http://www.w3.org/2000/svg"
 width="821.000000pt" height="797.000000pt" viewBox="0 0 821.000000 797.000000"
 preserveAspectRatio="xMidYMid meet">

<g transform="translate(0.000000,797.000000) scale(0.100000,-0.100000)"
fill="#000000" stroke="none">
<path d="M915 7939 c-401 -135 -717 -443 -859 -837 -61 -170 -57 66 -54 -3127
l3 -2920 33 -105 c138 -438 467 -781 881 -920 l89 -30 3092 0 3092 0 107 36
c444 148 760 523 873 1034 l23 105 0 2825 c0 3091 4 2871 -61 3070 -136 413
-452 737 -847 868 l-96 32 -3093 0 -3093 0 -90 -31z m6048 -379 c189 -18 359
-98 506 -237 160 -149 252 -323 281 -530 8 -56 10 -854 8 -2838 l-3 -2760 -28
-94 c-27 -89 -90 -231 -103 -231 -4 0 -4 19 -1 42 3 23 2 37 -2 30 -4 -7 -13
16 -20 51 -56 277 -200 589 -369 802 -272 342 -516 525 -1047 787 -99 49 -179
93 -177 99 1 6 -2 7 -9 4 -14 -10 -340 146 -332 158 3 6 1 7 -6 3 -6 -4 -37 5
-69 20 -131 62 -259 121 -289 133 -18 8 -33 16 -33 19 0 6 50 74 60 82 21 17
137 210 189 313 139 280 212 552 240 892 6 72 12 400 13 730 3 589 3 602 -19
700 -57 253 -133 420 -284 626 -273 371 -753 621 -1405 730 -155 26 -442 32
-539 11 -223 -49 -386 -140 -501 -282 -49 -61 -58 -68 -99 -73 -66 -9 -150
-42 -226 -87 -247 -146 -425 -458 -460 -805 -29 -285 24 -552 168 -841 l50
-99 2 -325 c3 -457 21 -598 112 -880 67 -207 157 -382 313 -605 57 -81 63 -95
46 -95 -33 0 -1147 -549 -1301 -642 -217 -130 -375 -259 -527 -428 -247 -275
-405 -572 -498 -937 -19 -75 -36 -139 -38 -140 -2 -2 -22 32 -44 75 -54 103
-89 229 -102 360 -13 142 -13 5298 0 5436 12 123 32 197 81 305 82 176 220
328 389 424 64 36 215 85 296 96 96 12 5652 13 5777 1z m-2978 -846 c395 -59
747 -200 990 -397 65 -52 77 -65 43 -44 -168 104 -521 221 -793 263 -134 20
-379 19 -482 -2 -161 -33 -299 -113 -359 -208 -27 -42 -31 -45 -59 -38 -16 4
-57 7 -90 6 -177 -1 -372 -195 -459 -456 -43 -128 -56 -212 -59 -374 -1 -84
-5 -150 -9 -146 -12 13 -48 133 -63 214 -21 114 -19 302 5 411 50 228 210 403
381 415 46 3 68 -1 114 -22 32 -14 61 -26 65 -26 4 0 10 25 13 56 13 123 110
255 233 315 121 60 285 70 529 33z m-810 -983 c10 -17 179 -128 245 -161 279
-141 601 -161 887 -55 l71 27 94 -82 c250 -217 480 -321 766 -346 l84 -7 -5
-436 c-4 -381 -7 -450 -25 -546 -74 -408 -217 -701 -456 -941 -148 -147 -252
-213 -430 -274 -123 -41 -217 -54 -359 -47 -145 6 -241 33 -387 108 -370 189
-661 650 -746 1184 -21 135 -30 566 -15 754 31 391 92 630 205 809 23 36 29
41 46 32 10 -5 21 -14 25 -19z m171 -3060 c114 -75 175 -105 304 -151 178 -64
249 -75 470 -75 180 0 203 2 300 28 185 48 336 114 469 206 59 40 77 48 88 39
9 -7 12 -21 8 -39 -6 -26 -2 -31 50 -60 53 -30 56 -33 49 -63 -16 -75 -263
-703 -374 -951 -120 -268 -160 -356 -232 -505 -46 -96 -88 -186 -94 -199 -8
-19 -13 4 -23 115 -6 76 -21 219 -32 316 l-20 177 44 54 c61 75 82 134 81 227
-1 102 -28 163 -105 234 -69 64 -126 86 -223 86 -147 0 -273 -98 -312 -241
-19 -72 -18 -105 6 -182 15 -47 33 -80 67 -117 l46 -51 -16 -142 c-9 -78 -24
-221 -34 -318 l-16 -177 -90 187 c-175 366 -347 758 -464 1061 -65 166 -163
441 -163 455 0 6 27 24 60 40 41 19 57 32 50 39 -18 18 -11 66 11 66 4 0 47
-26 95 -59z m-462 -441 c93 -277 221 -607 309 -800 13 -30 54 -120 90 -200 36
-80 82 -181 102 -225 57 -122 275 -559 286 -569 5 -6 9 -14 9 -18 0 -4 -96 -8
-213 -8 l-213 0 -19 32 c-23 38 -200 373 -277 525 l-52 102 27 54 c69 142 83
216 51 282 -24 51 -45 65 -328 213 -26 14 -50 31 -53 38 -2 6 12 60 31 120 31
99 90 290 161 529 18 60 30 84 35 75 5 -8 29 -76 54 -150z m2591 -100 c42
-140 92 -303 111 -362 19 -59 34 -110 34 -112 0 -2 -33 -21 -72 -41 -250 -128
-313 -175 -338 -250 -15 -47 -3 -97 51 -214 l41 -86 -46 -90 c-25 -49 -66
-128 -91 -175 -26 -47 -76 -141 -112 -210 -37 -69 -75 -137 -85 -152 l-19 -28
-208 0 -208 0 95 186 c223 442 514 1099 617 1391 19 55 119 335 140 392 3 8 7
12 10 10 2 -3 38 -119 80 -259z m-3055 123 c0 -4 -9 -32 -19 -62 -11 -31 -29
-90 -41 -131 -11 -41 -25 -84 -30 -95 -5 -11 -27 -83 -48 -160 -70 -251 -75
-313 -32 -368 11 -14 57 -47 103 -73 45 -25 112 -64 149 -86 l67 -39 -35 -63
c-24 -45 -35 -77 -36 -109 -1 -51 1 -55 193 -418 65 -124 119 -228 119 -232 0
-4 -366 -7 -814 -7 -899 0 -894 0 -1021 62 l-67 33 6 65 c4 36 18 117 32 180
87 397 293 761 564 998 163 142 342 249 700 419 199 94 210 98 210 86z m3588
-354 c185 -97 330 -203 466 -343 194 -199 323 -419 415 -711 29 -91 72 -273
88 -377 l10 -58 -799 0 c-439 0 -798 4 -798 8 0 4 4 12 9 17 4 6 43 78 86 160
43 83 111 213 151 291 51 98 74 152 74 176 0 39 -22 98 -51 140 -11 14 -19 30
-19 35 0 5 63 45 141 87 77 43 156 94 175 113 30 30 34 40 34 87 0 29 -20 132
-45 232 -47 185 -48 194 -40 194 3 0 49 -23 103 -51z"/>
<path d="M7320 1686 c0 -2 8 -10 18 -17 15 -13 16 -12 3 4 -13 16 -21 21 -21
13z"/>
<path d="M7423 1578 c3 -9 1 -19 -6 -22 -9 -3 -9 -5 0 -5 18 -1 23 13 11 29
-8 12 -9 12 -5 -2z"/>
<path d="M7476 1517 c3 -10 9 -15 12 -12 3 3 0 11 -7 18 -10 9 -11 8 -5 -6z"/>
<path d="M7560 1421 c0 -6 4 -13 10 -16 6 -3 7 1 4 9 -7 18 -14 21 -14 7z"/>
<path d="M7585 1340 c-3 -6 1 -7 9 -4 18 7 21 14 7 14 -6 0 -13 -4 -16 -10z"/>
<path d="M7520 1335 c0 -5 5 -17 10 -25 5 -8 10 -10 10 -5 0 6 -5 17 -10 25
-5 8 -10 11 -10 5z"/>
<path d="M7618 1027 c-3 -19 -2 -25 4 -19 6 6 8 18 6 28 -3 14 -5 12 -10 -9z"/>
<path d="M3955 5196 c-175 -38 -334 -145 -389 -260 -20 -43 -21 -108 -1 -146
30 -58 111 -100 191 -100 36 0 52 7 106 51 112 91 187 114 283 88 51 -14 109
-73 126 -127 26 -90 -25 -167 -175 -258 -115 -71 -143 -97 -172 -159 -44 -94
-21 -198 57 -255 96 -69 218 -36 284 77 24 40 47 61 112 103 138 86 216 190
253 336 24 91 25 136 6 226 -21 98 -61 172 -131 247 -112 117 -245 180 -400
187 -52 2 -115 -2 -150 -10z"/>
<path d="M4016 3804 c-60 -22 -104 -60 -132 -116 -22 -44 -26 -61 -22 -124 3
-61 8 -79 33 -116 17 -23 52 -56 79 -72 40 -25 58 -30 114 -30 79 -1 121 17
180 76 177 174 -17 468 -252 382z"/>
</g>
</svg>
